{
    "asset" : {
        "generator" : "Khronos glTF Blender I/O v1.3.48",
        "version" : "2.0"
    },
    "scene" : 0,
    "scenes" : [
        {
            "name" : "Scene",
            "nodes" : [
                0,
                1,
                2,
                3,
                4
            ]
        }
    ],
    "nodes" : [
        {
            "mesh" : 0,
            "name" : "crystal"
        },
        {
            "mesh" : 1,
            "name" : "fiveStar"
        },
        {
            "mesh" : 2,
            "name" : "kite"
        },
        {
            "mesh" : 3,
            "name" : "chevron"
        },
        {
            "mesh" : 4,
            "name" : "fourStar"
        }
    ],
    "meshes" : [
        {
            "name" : "crystal",
            "primitives" : [
                {
                    "attributes" : {
                        "POSITION" : 0,
                        "NORMAL" : 1,
                        "TEXCOORD_0" : 2
                    },
                    "indices" : 3
                }
            ]
        },
        {
            "name" : "fiveStar",
            "primitives" : [
                {
                    "attributes" : {
                        "POSITION" : 4,
                        "NORMAL" : 5
                    },
                    "indices" : 6
                }
            ]
        },
        {
            "name" : "kite",
            "primitives" : [
                {
                    "attributes" : {
                        "POSITION" : 7,
                        "NORMAL" : 8,
                        "TEXCOORD_0" : 9
                    },
                    "indices" : 10
                }
            ]
        },
        {
            "name" : "chevron",
            "primitives" : [
                {
                    "attributes" : {
                        "POSITION" : 11,
                        "NORMAL" : 12,
                        "TEXCOORD_0" : 13
                    },
                    "indices" : 14
                }
            ]
        },
        {
            "name" : "fourStar",
            "primitives" : [
                {
                    "attributes" : {
                        "POSITION" : 15,
                        "NORMAL" : 16
                    },
                    "indices" : 17
                }
            ]
        }
    ],
    "accessors" : [
        {
            "bufferView" : 0,
            "componentType" : 5126,
            "count" : 60,
            "max" : [
                0.4704846739768982,
                0.8983068466186523,
                0.4074516296386719
            ],
            "min" : [
                -0.4704846739768982,
                -0.894720733165741,
                -0.4074517786502838
            ],
            "type" : "VEC3"
        },
        {
            "bufferView" : 1,
            "componentType" : 5126,
            "count" : 60,
            "type" : "VEC3"
        },
        {
            "bufferView" : 2,
            "componentType" : 5126,
            "count" : 60,
            "type" : "VEC2"
        },
        {
            "bufferView" : 3,
            "componentType" : 5123,
            "count" : 72,
            "type" : "SCALAR"
        },
        {
            "bufferView" : 4,
            "componentType" : 5126,
            "count" : 20,
            "max" : [
                2.0786000476391564e-08,
                0.4755282700061798,
                0.4045085310935974
            ],
            "min" : [
                -2.0785998700034725e-08,
                -0.4755282402038574,
                -0.5
            ],
            "type" : "VEC3"
        },
        {
            "bufferView" : 5,
            "componentType" : 5126,
            "count" : 20,
            "type" : "VEC3"
        },
        {
            "bufferView" : 6,
            "componentType" : 5123,
            "count" : 24,
            "type" : "SCALAR"
        },
        {
            "bufferView" : 7,
            "componentType" : 5126,
            "count" : 6,
            "max" : [
                0.21033290028572083,
                0.36690080165863037,
                0.3811226785182953
            ],
            "min" : [
                -0.1502378135919571,
                -0.43572998046875,
                -0.33736807107925415
            ],
            "type" : "VEC3"
        },
        {
            "bufferView" : 8,
            "componentType" : 5126,
            "count" : 6,
            "type" : "VEC3"
        },
        {
            "bufferView" : 9,
            "componentType" : 5126,
            "count" : 6,
            "type" : "VEC2"
        },
        {
            "bufferView" : 10,
            "componentType" : 5123,
            "count" : 6,
            "type" : "SCALAR"
        },
        {
            "bufferView" : 11,
            "componentType" : 5126,
            "count" : 16,
            "max" : [
                0.11427086591720581,
                0.3039856553077698,
                0.25
            ],
            "min" : [
                -0.13572914898395538,
                -0.09776877611875534,
                -0.25
            ],
            "type" : "VEC3"
        },
        {
            "bufferView" : 12,
            "componentType" : 5126,
            "count" : 16,
            "type" : "VEC3"
        },
        {
            "bufferView" : 13,
            "componentType" : 5126,
            "count" : 16,
            "type" : "VEC2"
        },
        {
            "bufferView" : 14,
            "componentType" : 5123,
            "count" : 24,
            "type" : "SCALAR"
        },
        {
            "bufferView" : 15,
            "componentType" : 5126,
            "count" : 14,
            "max" : [
                2.1855694143368964e-08,
                0.5,
                0.5
            ],
            "min" : [
                -2.1855694143368964e-08,
                -0.5,
                -0.5
            ],
            "type" : "VEC3"
        },
        {
            "bufferView" : 16,
            "componentType" : 5126,
            "count" : 14,
            "type" : "VEC3"
        },
        {
            "bufferView" : 17,
            "componentType" : 5123,
            "count" : 18,
            "type" : "SCALAR"
        }
    ],
    "bufferViews" : [
        {
            "buffer" : 0,
            "byteLength" : 720,
            "byteOffset" : 0
        },
        {
            "buffer" : 0,
            "byteLength" : 720,
            "byteOffset" : 720
        },
        {
            "buffer" : 0,
            "byteLength" : 480,
            "byteOffset" : 1440
        },
        {
            "buffer" : 0,
            "byteLength" : 144,
            "byteOffset" : 1920
        },
        {
            "buffer" : 0,
            "byteLength" : 240,
            "byteOffset" : 2064
        },
        {
            "buffer" : 0,
            "byteLength" : 240,
            "byteOffset" : 2304
        },
        {
            "buffer" : 0,
            "byteLength" : 48,
            "byteOffset" : 2544
        },
        {
            "buffer" : 0,
            "byteLength" : 72,
            "byteOffset" : 2592
        },
        {
            "buffer" : 0,
            "byteLength" : 72,
            "byteOffset" : 2664
        },
        {
            "buffer" : 0,
            "byteLength" : 48,
            "byteOffset" : 2736
        },
        {
            "buffer" : 0,
            "byteLength" : 12,
            "byteOffset" : 2784
        },
        {
            "buffer" : 0,
            "byteLength" : 192,
            "byteOffset" : 2796
        },
        {
            "buffer" : 0,
            "byteLength" : 192,
            "byteOffset" : 2988
        },
        {
            "buffer" : 0,
            "byteLength" : 128,
            "byteOffset" : 3180
        },
        {
            "buffer" : 0,
            "byteLength" : 48,
            "byteOffset" : 3308
        },
        {
            "buffer" : 0,
            "byteLength" : 168,
            "byteOffset" : 3356
        },
        {
            "buffer" : 0,
            "byteLength" : 168,
            "byteOffset" : 3524
        },
        {
            "buffer" : 0,
            "byteLength" : 36,
            "byteOffset" : 3692
        }
    ],
    "buffers" : [
        {
            "byteLength" : 3728,
            "uri" : "data:application/octet-stream;base64,"
        }
    ]
}
