<?xml version="1.0" standalone="no"?>
<!DOCTYPE svg PUBLIC "-//W3C//DTD SVG 20010904//EN"
 "http://www.w3.org/TR/2001/REC-SVG-20010904/DTD/svg10.dtd">
<svg version="1.0" xmlns="http://www.w3.org/2000/svg"
 width="25.000000pt" height="375.000000pt" viewBox="0 0 25.000000 375.000000"
 preserveAspectRatio="xMidYMid meet">

<g transform="translate(0.000000,375.000000) scale(0.100000,-0.100000)"
fill="#000000" stroke="none">
<path d="M53 2915 l-11 -770 23 -251 c13 -137 27 -308 30 -380 3 -71 10 -158
15 -194 8 -62 9 -61 4 20 -3 47 -8 132 -10 190 -2 58 -15 222 -29 365 -24 259
-24 262 -14 865 5 333 9 677 7 765 -2 88 -8 -186 -15 -610z"/>
<path d="M122 1220 c-1 -19 3 -78 9 -130 5 -52 10 -129 10 -170 1 -41 4 -93 8
-115 12 -61 2 182 -13 325 -7 69 -14 109 -14 90z"/>
</g>
</svg>
